<?xml version="1.0"?>
<svg xmlns="http://www.w3.org/2000/svg" xmlns:xlink="http://www.w3.org/1999/xlink" xmlns:svgjs="http://svgjs.com/svgjs" version="1.1" width="512" height="512" x="0" y="0" viewBox="0 0 512 512" style="enable-background:new 0 0 512 512" xml:space="preserve" class=""><g><g xmlns="http://www.w3.org/2000/svg"><g><g><g><g><g><g><g><g><g><g><g><g><g><g><g><circle cx="256" cy="256" fill="#183251" r="256" data-original="#ff8d8d" style="" class=""/></g></g></g></g></g></g></g></g></g></g></g></g></g></g></g><path d="m502.242 185.761-65.768-65.768-2.738-.198-34.024-34.024-6.221 45.678-329.41 226.93 19.793 19.793-12.479 20.807 97.98 97.98c27.056 9.727 56.218 15.041 86.625 15.041 141.385 0 256-114.615 256-256 0-24.358-3.404-47.92-9.758-70.239z" fill="#183251" data-original="#ff5b5b" style="" class=""/><g><path d="m158.399 280.637-103.617 106.972 16.613 11.369 134.258-89.505z" fill="#ffffff" data-original="#8bbbff" style="" class=""/><g><path d="m275.69 339.807h15.709v55.971h-15.709z" fill="#f19737" data-original="#2d2d2d" style="" class=""/></g><path d="m256 230.688-2.691 9.312-158.318 86.467-30.91 31.912h191.919l27.545-59.81z" fill="#ffffff" data-original="#adcfff" style="" class=""/><path d="m412.946 119.366c0-27.264-22.102-49.366-49.366-49.366-16.505 0-31.108 8.108-40.071 20.55l-38.495 39.741-29.014 100.397v127.69h71.163c54.528 0 98.731-44.203 98.731-98.731 0-17.779-4.724-34.446-12.948-48.855z" fill="#ffffff" data-original="#8bbbff" style="" class=""/><path d="m256 160.245-161.009 166.222h161.009l18.574-83.111z" fill="#f19737" data-original="#efefef" style="" class=""/><path d="m285.014 130.292-29.014 29.953v166.222h15.365c54.438 0 98.569-44.131 98.569-98.569.001-49.804-36.945-90.957-84.92-97.606z" fill="#f19737" data-original="#d6d6d6" style="" class=""/><g><path d="m411.407 132.539v-25.093l25.067 12.547z" fill="#f19737" data-original="#464646" style="" class=""/></g><g><g><circle cx="369.935" cy="110.084" fill="#ffffff" r="11.444" data-original="#ffffff" style="" class=""/></g><g><circle cx="369.935" cy="110.084" fill="#f19737" r="8.092" data-original="#2d2d2d" style="" class=""/></g></g><path d="m402.599 115.201c0 3.899 3.16 7.059 7.059 7.059s7.059-3.161 7.059-7.059v-9.501c0-3.899-3.161-7.059-7.059-7.059-3.899 0-7.059 3.161-7.059 7.059z" fill="#f19737" data-original="#efefef" style="" class=""/><g><path d="m229.067 339.807h15.709v55.971h-15.709z" fill="#f19737" data-original="#464646" style="" class=""/></g></g></g></g></svg>
